<svg xmlns="http://www.w3.org/2000/svg" width="50" height="50" viewBox="0 0 50 50"><title>A11Bionic</title><g id="Layer_2" data-name="Layer 2"><g id="Layer_1-2" data-name="Layer 1"><circle cx="25" cy="25" r="24" fill="none" stroke="#ffce0a" stroke-linecap="round" stroke-linejoin="round"/><path d="M31.47,30.61a.85.85,0,0,1-.86.86H19.39a.85.85,0,0,1-.86-.86V19.39a.85.85,0,0,1,.86-.86H30.61a.85.85,0,0,1,.86.86V30.61Z" fill="#ffce0a"/><path d="M34.25,33A1.24,1.24,0,0,1,33,34.25H17A1.24,1.24,0,0,1,15.75,33V17A1.24,1.24,0,0,1,17,15.75H33A1.24,1.24,0,0,1,34.25,17V33Z" fill="none" stroke="#000" stroke-linecap="round" stroke-linejoin="round"/><path d="M31.47,30.61a.85.85,0,0,1-.86.86H19.39a.85.85,0,0,1-.86-.86V19.39a.85.85,0,0,1,.86-.86H30.61a.85.85,0,0,1,.86.86V30.61Z" fill="none" stroke="#000" stroke-linecap="round" stroke-linejoin="round"/><line x1="13.5" y1="20.93" x2="15.75" y2="20.93" fill="none" stroke="#000" stroke-linecap="round" stroke-linejoin="round"/><line x1="13.5" y1="29.07" x2="15.75" y2="29.07" fill="none" stroke="#000" stroke-linecap="round" stroke-linejoin="round"/><line x1="13.5" y1="26.36" x2="15.75" y2="26.36" fill="none" stroke="#000" stroke-linecap="round" stroke-linejoin="round"/><line x1="13.5" y1="23.64" x2="15.75" y2="23.64" fill="none" stroke="#000" stroke-linecap="round" stroke-linejoin="round"/><line x1="34.25" y1="20.93" x2="36.5" y2="20.93" fill="none" stroke="#000" stroke-linecap="round" stroke-linejoin="round"/><line x1="34.25" y1="29.07" x2="36.5" y2="29.07" fill="none" stroke="#000" stroke-linecap="round" stroke-linejoin="round"/><line x1="34.25" y1="26.36" x2="36.5" y2="26.36" fill="none" stroke="#000" stroke-linecap="round" stroke-linejoin="round"/><line x1="34.25" y1="23.64" x2="36.5" y2="23.64" fill="none" stroke="#000" stroke-linecap="round" stroke-linejoin="round"/><line x1="20.93" y1="15.75" x2="20.93" y2="13.5" fill="none" stroke="#000" stroke-linecap="round" stroke-linejoin="round"/><line x1="29.07" y1="15.75" x2="29.07" y2="13.5" fill="none" stroke="#000" stroke-linecap="round" stroke-linejoin="round"/><line x1="26.36" y1="15.75" x2="26.36" y2="13.5" fill="none" stroke="#000" stroke-linecap="round" stroke-linejoin="round"/><line x1="23.64" y1="15.75" x2="23.64" y2="13.5" fill="none" stroke="#000" stroke-linecap="round" stroke-linejoin="round"/><line x1="20.93" y1="36.5" x2="20.93" y2="34.25" fill="none" stroke="#000" stroke-linecap="round" stroke-linejoin="round"/><line x1="29.07" y1="36.5" x2="29.07" y2="34.25" fill="none" stroke="#000" stroke-linecap="round" stroke-linejoin="round"/><line x1="26.36" y1="36.5" x2="26.36" y2="34.25" fill="none" stroke="#000" stroke-linecap="round" stroke-linejoin="round"/><line x1="23.64" y1="36.5" x2="23.64" y2="34.25" fill="none" stroke="#000" stroke-linecap="round" stroke-linejoin="round"/><path d="M21.77,22.14h1.47l1.88,5.72H24l-.44-1.38H21.37l-.44,1.38H19.87Zm-.16,3.52h1.65l-.82-2.6Z"/><path d="M25.77,23.25l-1.19.81v-1l1.32-.95h1v5.72H25.77Z"/><path d="M28.59,23.25l-1.19.81v-1l1.31-.95h1v5.72H28.59Z"/><rect width="50" height="50" fill="none"/></g></g></svg>